<svg xmlns="http://www.w3.org/2000/svg" viewBox="0 0 1200 600" width="1200" height="600">
  <defs></defs>
  <rect width="1200" height="600" fill="#F5F3EE"/>
  <circle cx="765" cy="386" r="3" fill="#B8850E" opacity="0.60"/><circle cx="544" cy="553" r="3" fill="#2A3D35" opacity="0.63"/><circle cx="39" cy="412" r="1" fill="#5E9186" opacity="0.58"/><circle cx="410" cy="27" r="1" fill="#5E9186" opacity="0.49"/><circle cx="897" cy="342" r="2" fill="#5E9186" opacity="0.56"/><circle cx="588" cy="45" r="3" fill="#5E9186" opacity="0.51"/><circle cx="507" cy="480" r="3" fill="#5E9186" opacity="0.66"/><circle cx="942" cy="255" r="1" fill="#5E9186" opacity="0.49"/><circle cx="373" cy="490" r="3" fill="#5E9186" opacity="0.72"/><circle cx="1096" cy="145" r="2" fill="#5E9186" opacity="0.59"/><circle cx="95" cy="260" r="2" fill="#5E9186" opacity="0.38"/><circle cx="514" cy="483" r="2" fill="#2A3D35" opacity="0.41"/><circle cx="569" cy="494" r="3" fill="#5E9186" opacity="0.72"/><circle cx="1116" cy="69" r="3" fill="#5E9186" opacity="0.27"/><circle cx="91" cy="216" r="1" fill="#5E9186" opacity="0.34"/><circle cx="302" cy="359" r="2" fill="#5E9186" opacity="0.77"/><circle cx="181" cy="530" r="1" fill="#5E9186" opacity="0.52"/><circle cx="688" cy="457" r="3" fill="#5E9186" opacity="0.27"/><circle cx="607" cy="332" r="1" fill="#B8850E" opacity="0.70"/><circle cx="1026" cy="523" r="2" fill="#5E9186" opacity="0.53"/><circle cx="377" cy="550" r="2" fill="#B8850E" opacity="0.80"/><circle cx="452" cy="237" r="3" fill="#B8850E" opacity="0.75"/><circle cx="539" cy="336" r="3" fill="#2A3D35" opacity="0.42"/><circle cx="230" cy="47" r="2" fill="#B8850E" opacity="0.65"/><circle cx="237" cy="346" r="2" fill="#5E9186" opacity="0.56"/><circle cx="80" cy="337" r="1" fill="#B8850E" opacity="0.55"/><circle cx="751" cy="516" r="2" fill="#5E9186" opacity="0.62"/><circle cx="50" cy="355" r="3" fill="#5E9186" opacity="0.69"/><circle cx="825" cy="174" r="3" fill="#5E9186" opacity="0.48"/><circle cx="1012" cy="101" r="3" fill="#B8850E" opacity="0.75"/><circle cx="475" cy="104" r="3" fill="#5E9186" opacity="0.66"/><circle cx="1062" cy="295" r="3" fill="#B8850E" opacity="0.45"/><circle cx="805" cy="450" r="3" fill="#5E9186" opacity="0.48"/><circle cx="992" cy="377" r="1" fill="#5E9186" opacity="0.31"/><circle cx="183" cy="76" r="2" fill="#5E9186" opacity="0.26"/><circle cx="210" cy="203" r="3" fill="#5E9186" opacity="0.33"/><circle cx="921" cy="118" r="2" fill="#B8850E" opacity="0.80"/><circle cx="996" cy="301" r="3" fill="#5E9186" opacity="0.51"/><circle cx="691" cy="576" r="2" fill="#B8850E" opacity="0.50"/><circle cx="790" cy="495" r="3" fill="#2A3D35" opacity="0.81"/><circle cx="357" cy="362" r="3" fill="#5E9186" opacity="0.36"/><circle cx="344" cy="97" r="1" fill="#5E9186" opacity="0.79"/><circle cx="215" cy="372" r="1" fill="#5E9186" opacity="0.82"/><circle cx="346" cy="579" r="2" fill="#5E9186" opacity="0.53"/><circle cx="873" cy="126" r="2" fill="#5E9186" opacity="0.68"/><circle cx="660" cy="245" r="1" fill="#B8850E" opacity="0.55"/><circle cx="155" cy="360" r="2" fill="#2A3D35" opacity="0.74"/><circle cx="430" cy="231" r="3" fill="#B8850E" opacity="0.45"/><circle cx="765" cy="274" r="3" fill="#5E9186" opacity="0.84"/><circle cx="304" cy="201" r="1" fill="#B8850E" opacity="0.55"/><circle cx="335" cy="252" r="1" fill="#B8850E" opacity="0.70"/><circle cx="594" cy="443" r="1" fill="#5E9186" opacity="0.61"/><circle cx="345" cy="470" r="2" fill="#5E9186" opacity="0.44"/><circle cx="1036" cy="157" r="3" fill="#B8850E" opacity="0.75"/><circle cx="203" cy="512" r="2" fill="#5E9186" opacity="0.26"/><circle cx="814" cy="479" r="3" fill="#5E9186" opacity="0.69"/><circle cx="901" cy="346" r="2" fill="#2A3D35" opacity="0.68"/><circle cx="456" cy="113" r="1" fill="#5E9186" opacity="0.79"/><circle cx="807" cy="36" r="2" fill="#5E9186" opacity="0.38"/><circle cx="210" cy="579" r="2" fill="#5E9186" opacity="0.29"/><circle cx="321" cy="174" r="2" fill="#5E9186" opacity="0.56"/><circle cx="28" cy="565" r="3" fill="#B8850E" opacity="0.75"/><circle cx="763" cy="536" r="3" fill="#5E9186" opacity="0.54"/><circle cx="150" cy="231" r="1" fill="#B8850E" opacity="0.25"/><circle cx="949" cy="178" r="2" fill="#B8850E" opacity="0.80"/><circle cx="48" cy="25" r="1" fill="#5E9186" opacity="0.79"/><circle cx="719" cy="412" r="3" fill="#5E9186" opacity="0.66"/><circle cx="626" cy="91" r="3" fill="#2A3D35" opacity="0.33"/><circle cx="465" cy="406" r="1" fill="#2A3D35" opacity="0.28"/><circle cx="772" cy="445" r="2" fill="#B8850E" opacity="0.35"/><circle cx="283" cy="96" r="3" fill="#5E9186" opacity="0.54"/><circle cx="366" cy="367" r="2" fill="#B8850E" opacity="0.65"/><circle cx="965" cy="58" r="3" fill="#B8850E" opacity="0.60"/><circle cx="904" cy="129" r="1" fill="#B8850E" opacity="0.55"/><circle cx="823" cy="308" r="1" fill="#5E9186" opacity="0.58"/><circle cx="26" cy="179" r="2" fill="#5E9186" opacity="0.77"/><circle cx="121" cy="350" r="1" fill="#B8850E" opacity="0.40"/><circle cx="996" cy="389" r="2" fill="#B8850E" opacity="0.35"/><circle cx="323" cy="536" r="3" fill="#5E9186" opacity="0.54"/><circle cx="310" cy="295" r="1" fill="#B8850E" opacity="0.25"/><circle cx="797" cy="98" r="3" fill="#5E9186" opacity="0.48"/><circle cx="632" cy="393" r="2" fill="#5E9186" opacity="0.83"/><circle cx="711" cy="236" r="3" fill="#5E9186" opacity="0.54"/><circle cx="226" cy="75" r="3" fill="#5E9186" opacity="0.81"/><circle cx="609" cy="86" r="1" fill="#5E9186" opacity="0.52"/><circle cx="508" cy="189" r="1" fill="#5E9186" opacity="0.31"/><circle cx="1099" cy="496" r="3" fill="#5E9186" opacity="0.54"/><circle cx="78" cy="287" r="2" fill="#B8850E" opacity="0.65"/><circle cx="141" cy="378" r="3" fill="#5E9186" opacity="0.48"/><circle cx="496" cy="577" r="1" fill="#5E9186" opacity="0.31"/><circle cx="791" cy="180" r="2" fill="#B8850E" opacity="0.50"/><circle cx="386" cy="371" r="1" fill="#5E9186" opacity="0.61"/><circle cx="689" cy="222" r="2" fill="#5E9186" opacity="0.32"/><circle cx="196" cy="469" r="1" fill="#5E9186" opacity="0.79"/><circle cx="627" cy="280" r="2" fill="#5E9186" opacity="0.38"/><circle cx="318" cy="55" r="3" fill="#5E9186" opacity="0.69"/><circle cx="1053" cy="434" r="2" fill="#5E9186" opacity="0.44"/><circle cx="88" cy="233" r="1" fill="#5E9186" opacity="0.79"/><circle cx="943" cy="364" r="1" fill="#5E9186" opacity="0.82"/><circle cx="666" cy="75" r="3" fill="#5E9186" opacity="0.57"/><circle cx="353" cy="182" r="1" fill="#5E9186" opacity="0.76"/><circle cx="468" cy="109" r="3" fill="#5E9186" opacity="0.63"/><circle cx="987" cy="240" r="3" fill="#B8850E" opacity="0.30"/><circle cx="1014" cy="335" r="3" fill="#5E9186" opacity="0.69"/><circle cx="157" cy="186" r="3" fill="#5E9186" opacity="0.36"/><circle cx="840" cy="417" r="2" fill="#5E9186" opacity="0.71"/><circle cx="431" cy="436" r="1" fill="#5E9186" opacity="0.82"/><circle cx="858" cy="211" r="3" fill="#5E9186" opacity="0.33"/><circle cx="25" cy="334" r="1" fill="#5E9186" opacity="0.52"/><circle cx="540" cy="341" r="2" fill="#5E9186" opacity="0.47"/><circle cx="763" cy="200" r="3" fill="#B8850E" opacity="0.30"/><circle cx="1110" cy="311" r="2" fill="#5E9186" opacity="0.41"/><circle cx="733" cy="562" r="1" fill="#5E9186" opacity="0.52"/><circle cx="952" cy="425" r="3" fill="#5E9186" opacity="0.51"/><circle cx="327" cy="300" r="3" fill="#5E9186" opacity="0.66"/><circle cx="906" cy="459" r="3" fill="#5E9186" opacity="0.81"/><circle cx="1137" cy="86" r="1" fill="#2A3D35" opacity="0.28"/><circle cx="684" cy="333" r="1" fill="#5E9186" opacity="0.67"/><circle cx="443" cy="224" r="1" fill="#B8850E" opacity="0.70"/><circle cx="1054" cy="447" r="3" fill="#B8850E" opacity="0.45"/><circle cx="605" cy="554" r="2" fill="#5E9186" opacity="0.44"/><circle cx="400" cy="497" r="1" fill="#5E9186" opacity="0.31"/><circle cx="247" cy="212" r="1" fill="#5E9186" opacity="0.34"/><circle cx="946" cy="259" r="3" fill="#2A3D35" opacity="0.33"/><circle cx="1065" cy="62" r="3" fill="#5E9186" opacity="0.48"/><circle cx="596" cy="261" r="1" fill="#5E9186" opacity="0.31"/><circle cx="987" cy="392" r="3" fill="#5E9186" opacity="0.54"/><circle cx="358" cy="407" r="2" fill="#5E9186" opacity="0.53"/><circle cx="1013" cy="226" r="1" fill="#5E9186" opacity="0.28"/><circle cx="776" cy="345" r="1" fill="#5E9186" opacity="0.31"/><circle cx="1063" cy="156" r="1" fill="#5E9186" opacity="0.46"/><circle cx="962" cy="123" r="1" fill="#B8850E" opacity="0.25"/><circle cx="889" cy="166" r="3" fill="#5E9186" opacity="0.48"/><circle cx="820" cy="349" r="2" fill="#5E9186" opacity="0.59"/><circle cx="187" cy="112" r="2" fill="#5E9186" opacity="0.62"/><circle cx="510" cy="127" r="1" fill="#2A3D35" opacity="0.37"/><circle cx="597" cy="410" r="3" fill="#5E9186" opacity="0.48"/><circle cx="144" cy="481" r="2" fill="#5E9186" opacity="0.71"/><circle cx="783" cy="468" r="1" fill="#5E9186" opacity="0.82"/><circle cx="1138" cy="547" r="3" fill="#B8850E" opacity="0.45"/><circle cx="593" cy="350" r="3" fill="#5E9186" opacity="0.36"/><circle cx="228" cy="293" r="1" fill="#B8850E" opacity="0.55"/><circle cx="843" cy="328" r="3" fill="#5E9186" opacity="0.54"/><circle cx="430" cy="503" r="2" fill="#5E9186" opacity="0.41"/><circle cx="1061" cy="290" r="1" fill="#5E9186" opacity="0.52"/><circle cx="152" cy="537" r="1" fill="#2A3D35" opacity="0.79"/><circle cx="1007" cy="492" r="1" fill="#5E9186" opacity="0.82"/><circle cx="602" cy="235" r="3" fill="#5E9186" opacity="0.69"/><circle cx="233" cy="534" r="3" fill="#5E9186" opacity="0.72"/><circle cx="52" cy="77" r="3" fill="#5E9186" opacity="0.39"/><circle cx="443" cy="464" r="3" fill="#5E9186" opacity="0.42"/><circle cx="870" cy="127" r="3" fill="#5E9186" opacity="0.81"/><circle cx="317" cy="474" r="3" fill="#5E9186" opacity="0.72"/><circle cx="1112" cy="225" r="2" fill="#5E9186" opacity="0.71"/><circle cx="775" cy="292" r="1" fill="#5E9186" opacity="0.82"/><circle cx="418" cy="275" r="1" fill="#5E9186" opacity="0.49"/><circle cx="25" cy="190" r="2" fill="#5E9186" opacity="0.44"/><circle cx="500" cy="437" r="1" fill="#5E9186" opacity="0.43"/><circle cx="771" cy="344" r="2" fill="#B8850E" opacity="0.50"/><circle cx="142" cy="455" r="3" fill="#2A3D35" opacity="0.57"/><circle cx="749" cy="162" r="3" fill="#5E9186" opacity="0.36"/><circle cx="208" cy="377" r="1" fill="#2A3D35" opacity="0.79"/><circle cx="1023" cy="92" r="3" fill="#5E9186" opacity="0.66"/><circle cx="322" cy="91" r="3" fill="#5E9186" opacity="0.33"/><circle cx="649" cy="502" r="3" fill="#2A3D35" opacity="0.48"/><circle cx="412" cy="205" r="1" fill="#5E9186" opacity="0.31"/><circle cx="227" cy="208" r="2" fill="#B8850E" opacity="0.50"/><circle cx="1134" cy="543" r="1" fill="#5E9186" opacity="0.49"/><circle cx="325" cy="522" r="2" fill="#5E9186" opacity="0.44"/><circle cx="744" cy="337" r="3" fill="#5E9186" opacity="0.51"/><circle cx="1039" cy="452" r="2" fill="#5E9186" opacity="0.38"/><circle cx="786" cy="387" r="1" fill="#5E9186" opacity="0.61"/><circle cx="129" cy="302" r="3" fill="#5E9186" opacity="0.36"/><circle cx="1164" cy="229" r="3" fill="#5E9186" opacity="0.27"/><circle cx="219" cy="184" r="1" fill="#2A3D35" opacity="0.46"/><circle cx="398" cy="407" r="2" fill="#2A3D35" opacity="0.77"/><circle cx="1133" cy="146" r="2" fill="#5E9186" opacity="0.32"/><circle cx="184" cy="265" r="2" fill="#5E9186" opacity="0.71"/><circle cx="831" cy="76" r="2" fill="#5E9186" opacity="0.62"/><circle cx="82" cy="475" r="3" fill="#5E9186" opacity="0.33"/><circle cx="249" cy="358" r="3" fill="#B8850E" opacity="0.60"/><circle cx="796" cy="509" r="2" fill="#B8850E" opacity="0.35"/><circle cx="115" cy="576" r="1" fill="#5E9186" opacity="0.34"/><circle cx="22" cy="511" r="1" fill="#5E9186" opacity="0.49"/><circle cx="813" cy="170" r="2" fill="#5E9186" opacity="0.56"/><circle cx="888" cy="225" r="1" fill="#2A3D35" opacity="0.31"/><circle cx="263" cy="52" r="2" fill="#5E9186" opacity="0.62"/><circle cx="130" cy="467" r="3" fill="#5E9186" opacity="0.57"/><circle cx="241" cy="478" r="1" fill="#5E9186" opacity="0.28"/><circle cx="532" cy="37" r="3" fill="#B8850E" opacity="0.75"/><circle cx="403" cy="312" r="3" fill="#5E9186" opacity="0.54"/><circle cx="574" cy="487" r="2" fill="#5E9186" opacity="0.53"/><circle cx="221" cy="418" r="1" fill="#2A3D35" opacity="0.76"/><circle cx="728" cy="73" r="3" fill="#2A3D35" opacity="0.51"/><circle cx="543" cy="380" r="1" fill="#5E9186" opacity="0.82"/><circle cx="314" cy="459" r="2" fill="#2A3D35" opacity="0.29"/><circle cx="1161" cy="534" r="2" fill="#2A3D35" opacity="0.32"/><circle cx="348" cy="317" r="3" fill="#5E9186" opacity="0.39"/><circle cx="307" cy="128" r="2" fill="#5E9186" opacity="0.62"/><circle cx="446" cy="527" r="2" fill="#5E9186" opacity="0.41"/><circle cx="901" cy="58" r="3" fill="#B8850E" opacity="0.60"/><circle cx="680" cy="465" r="2" fill="#5E9186" opacity="0.83"/><circle cx="111" cy="468" r="3" fill="#5E9186" opacity="0.42"/><circle cx="202" cy="195" r="3" fill="#B8850E" opacity="0.45"/><circle cx="1049" cy="334" r="1" fill="#B8850E" opacity="0.40"/><circle cx="1140" cy="53" r="2" fill="#5E9186" opacity="0.71"/><circle cx="75" cy="120" r="2" fill="#B8850E" opacity="0.50"/><circle cx="694" cy="199" r="2" fill="#B8850E" opacity="0.65"/><circle cx="365" cy="482" r="1" fill="#B8850E" opacity="0.40"/><circle cx="304" cy="425" r="2" fill="#2A3D35" opacity="0.59"/><circle cx="1119" cy="332" r="1" fill="#5E9186" opacity="0.34"/><circle cx="594" cy="203" r="3" fill="#5E9186" opacity="0.69"/><circle cx="705" cy="358" r="1" fill="#5E9186" opacity="0.64"/><circle cx="612" cy="573" r="3" fill="#5E9186" opacity="0.63"/><circle cx="1139" cy="448" r="1" fill="#5E9186" opacity="0.82"/><circle cx="78" cy="543" r="3" fill="#5E9186" opacity="0.57"/><circle cx="213" cy="490" r="2" fill="#5E9186" opacity="0.68"/><circle cx="1032" cy="513" r="1" fill="#B8850E" opacity="0.55"/><circle cx="975" cy="324" r="3" fill="#5E9186" opacity="0.66"/><circle cx="706" cy="339" r="1" fill="#5E9186" opacity="0.61"/><circle cx="361" cy="222" r="3" fill="#5E9186" opacity="0.48"/><circle cx="324" cy="389" r="3" fill="#B8850E" opacity="0.75"/><circle cx="627" cy="440" r="3" fill="#5E9186" opacity="0.66"/><circle cx="126" cy="311" r="2" fill="#B8850E" opacity="0.65"/><circle cx="581" cy="482" r="1" fill="#5E9186" opacity="0.28"/><circle cx="808" cy="25" r="2" fill="#5E9186" opacity="0.47"/><circle cx="207" cy="268" r="2" fill="#5E9186" opacity="0.74"/><circle cx="682" cy="171" r="3" fill="#5E9186" opacity="0.69"/><circle cx="1089" cy="150" r="1" fill="#5E9186" opacity="0.76"/><circle cx="748" cy="557" r="2" fill="#5E9186" opacity="0.71"/><circle cx="1115" cy="304" r="2" fill="#B8850E" opacity="0.50"/><circle cx="510" cy="95" r="2" fill="#5E9186" opacity="0.29"/><circle cx="461" cy="410" r="1" fill="#5E9186" opacity="0.76"/><circle cx="1048" cy="465" r="1" fill="#5E9186" opacity="0.67"/><circle cx="135" cy="244" r="1" fill="#5E9186" opacity="0.82"/><circle cx="258" cy="371" r="2" fill="#5E9186" opacity="0.77"/><circle cx="553" cy="94" r="2" fill="#B8850E" opacity="0.80"/><circle cx="484" cy="21" r="3" fill="#B8850E" opacity="0.75"/><circle cx="731" cy="72" r="1" fill="#5E9186" opacity="0.46"/><circle cx="910" cy="567" r="1" fill="#5E9186" opacity="0.61"/><circle cx="493" cy="226" r="1" fill="#5E9186" opacity="0.64"/><circle cx="504" cy="521" r="3" fill="#B8850E" opacity="0.75"/><circle cx="615" cy="76" r="1" fill="#B8850E" opacity="0.70"/><circle cx="362" cy="395" r="2" fill="#B8850E" opacity="0.65"/><circle cx="569" cy="22" r="1" fill="#5E9186" opacity="0.76"/><circle cx="868" cy="77" r="3" fill="#5E9186" opacity="0.39"/><circle cx="883" cy="192" r="2" fill="#2A3D35" opacity="0.38"/><circle cx="142" cy="63" r="2" fill="#5E9186" opacity="0.53"/><circle cx="125" cy="522" r="3" fill="#5E9186" opacity="0.36"/><circle cx="152" cy="577" r="2" fill="#5E9186" opacity="0.47"/><circle cx="279" cy="420" r="2" fill="#5E9186" opacity="0.74"/><circle cx="930" cy="579" r="2" fill="#5E9186" opacity="0.29"/><circle cx="817" cy="158" r="3" fill="#5E9186" opacity="0.48"/><circle cx="860" cy="373" r="3" fill="#5E9186" opacity="0.27"/><circle cx="203" cy="280" r="3" fill="#B8850E" opacity="0.30"/><circle cx="662" cy="375" r="1" fill="#B8850E" opacity="0.25"/><circle cx="709" cy="578" r="3" fill="#5E9186" opacity="0.84"/><circle cx="816" cy="377" r="3" fill="#5E9186" opacity="0.63"/><circle cx="375" cy="76" r="2" fill="#B8850E" opacity="0.50"/><circle cx="474" cy="299" r="1" fill="#5E9186" opacity="0.61"/><circle cx="857" cy="118" r="2" fill="#B8850E" opacity="0.80"/><circle cx="740" cy="285" r="2" fill="#5E9186" opacity="0.83"/><circle cx="171" cy="320" r="1" fill="#5E9186" opacity="0.82"/><circle cx="990" cy="511" r="1" fill="#5E9186" opacity="0.37"/><circle cx="629" cy="554" r="3" fill="#5E9186" opacity="0.72"/><circle cx="272" cy="529" r="2" fill="#5E9186" opacity="0.47"/><circle cx="679" cy="532" r="3" fill="#5E9186" opacity="0.54"/><circle cx="1122" cy="35" r="1" fill="#2A3D35" opacity="0.37"/><circle cx="1129" cy="462" r="2" fill="#B8850E" opacity="0.80"/><circle cx="828" cy="437" r="1" fill="#2A3D35" opacity="0.43"/><circle cx="515" cy="72" r="2" fill="#5E9186" opacity="0.62"/><circle cx="526" cy="215" r="1" fill="#5E9186" opacity="0.61"/><circle cx="997" cy="290" r="3" fill="#5E9186" opacity="0.36"/><circle cx="392" cy="217" r="3" fill="#5E9186" opacity="0.63"/><circle cx="111" cy="92" r="1" fill="#B8850E" opacity="0.70"/><circle cx="418" cy="411" r="2" fill="#5E9186" opacity="0.77"/><circle cx="585" cy="454" r="2" fill="#5E9186" opacity="0.44"/><circle cx="796" cy="45" r="3" fill="#5E9186" opacity="0.63"/><circle cx="531" cy="112" r="1" fill="#5E9186" opacity="0.58"/><circle cx="406" cy="463" r="2" fill="#5E9186" opacity="0.53"/><circle cx="1037" cy="42" r="3" fill="#5E9186" opacity="0.72"/><circle cx="1080" cy="321" r="1" fill="#B8850E" opacity="0.55"/><circle cx="1087" cy="548" r="2" fill="#B8850E" opacity="0.50"/><circle cx="58" cy="339" r="3" fill="#B8850E" opacity="0.45"/><circle cx="329" cy="142" r="2" fill="#5E9186" opacity="0.56"/><circle cx="972" cy="85" r="3" fill="#5E9186" opacity="0.39"/><circle cx="523" cy="216" r="2" fill="#5E9186" opacity="0.74"/><circle cx="430" cy="135" r="3" fill="#B8850E" opacity="0.45"/><circle cx="669" cy="66" r="2" fill="#5E9186" opacity="0.44"/><circle cx="752" cy="313" r="3" fill="#5E9186" opacity="0.27"/><circle cx="1151" cy="284" r="2" fill="#5E9186" opacity="0.26"/><circle cx="354" cy="123" r="3" fill="#5E9186" opacity="0.81"/><circle cx="369" cy="502" r="3" fill="#5E9186" opacity="0.48"/><circle cx="820" cy="333" r="1" fill="#5E9186" opacity="0.79"/><circle cx="1139" cy="288" r="1" fill="#5E9186" opacity="0.34"/><circle cx="254" cy="575" r="1" fill="#5E9186" opacity="0.49"/><circle cx="765" cy="506" r="1" fill="#5E9186" opacity="0.76"/><circle cx="984" cy="529" r="3" fill="#5E9186" opacity="0.51"/><circle cx="1047" cy="436" r="3" fill="#5E9186" opacity="0.66"/><circle cx="1130" cy="483" r="1" fill="#B8850E" opacity="0.25"/><circle cx="65" cy="142" r="2" fill="#5E9186" opacity="0.68"/><circle cx="540" cy="149" r="2" fill="#5E9186" opacity="0.59"/><circle cx="419" cy="552" r="3" fill="#5E9186" opacity="0.78"/><circle cx="62" cy="471" r="2" fill="#5E9186" opacity="0.53"/><circle cx="213" cy="338" r="2" fill="#2A3D35" opacity="0.44"/><circle cx="344" cy="25" r="1" fill="#5E9186" opacity="0.79"/><circle cx="167" cy="428" r="1" fill="#5E9186" opacity="0.46"/><circle cx="1074" cy="443" r="3" fill="#5E9186" opacity="0.81"/><circle cx="953" cy="198" r="2" fill="#2A3D35" opacity="0.68"/><circle cx="972" cy="173" r="1" fill="#5E9186" opacity="0.67"/><circle cx="403" cy="128" r="3" fill="#5E9186" opacity="0.54"/><circle cx="918" cy="111" r="2" fill="#5E9186" opacity="0.41"/><circle cx="21" cy="378" r="2" fill="#5E9186" opacity="0.32"/><circle cx="472" cy="577" r="2" fill="#5E9186" opacity="0.59"/><circle cx="271" cy="564" r="2" fill="#5E9186" opacity="0.26"/><circle cx="138" cy="211" r="3" fill="#B8850E" opacity="0.45"/><circle cx="553" cy="398" r="2" fill="#B8850E" opacity="0.80"/><circle cx="844" cy="181" r="2" fill="#B8850E" opacity="0.35"/><circle cx="995" cy="40" r="2" fill="#2A3D35" opacity="0.74"/><circle cx="1070" cy="551" r="1" fill="#B8850E" opacity="0.25"/><path d="M0,300 Q150,301 300,357" fill="none" stroke="#5E9186" stroke-width="0.8" opacity="0.18"/><path d="M0,357 Q150,344 300,379" fill="none" stroke="#5E9186" stroke-width="0.8" opacity="0.18"/><path d="M0,379 Q150,342 300,354" fill="none" stroke="#5E9186" stroke-width="0.8" opacity="0.18"/><path d="M0,354 Q150,296 300,296" fill="none" stroke="#5E9186" stroke-width="0.8" opacity="0.18"/><path d="M0,296 Q150,235 300,240" fill="none" stroke="#5E9186" stroke-width="0.8" opacity="0.18"/>
</svg>