<svg xmlns="http://www.w3.org/2000/svg" viewBox="0 0 800 600" width="800" height="600">
  <rect width="800" height="600" fill="#2A3D35"/>
  <rect x="0" y="0" width="800" height="6" fill="#B8850E"/>
  <!-- 제호 -->
  <text x="48" y="70" font-family="'Courier New',monospace" font-size="13" fill="#C8E0DC" letter-spacing="2">늘푸른바다 · REVERBANT · 관찰자 예측</text>
  <text x="48" y="112" font-family="Georgia,serif" font-size="34" font-weight="bold" fill="#EFC97A">🇺🇸 미국 2026 중간선거</text>
  <text x="48" y="146" font-family="Georgia,serif" font-size="19" fill="#F5F3EE">봉기가 아니라 선거로 압력을 방전</text>
  <text x="48" y="172" font-family="'Courier New',monospace" font-size="12" fill="#8fae9f">US 2026 Midterm — Observer Forecast · 2026-09-29</text>

  <!-- 압박좌표계 미니 모티프: 여론 중심 + 12축 -->
  <g transform="translate(600,330)">
    <circle cx="0" cy="0" r="120" fill="none" stroke="#5E9186" stroke-width="1" stroke-dasharray="4 4" opacity="0.6"/>
    <circle cx="0" cy="0" r="46" fill="#2A3D35" stroke="#EFC97A" stroke-width="1.5"/>
    <text x="0" y="-4" font-family="Georgia,serif" font-size="13" font-weight="bold" fill="#EFC97A" text-anchor="middle">여론</text>
    <text x="0" y="14" font-family="'Courier New',monospace" font-size="11" fill="#C8E0DC" text-anchor="middle">순 −22</text>
    <!-- 생활압박축(적) 정렬 + 일부 완화
녹) -->
    <circle cx="0" cy="-95" r="7" fill="#C0392B"/><circle cx="82" cy="-48" r="7" fill="#C0392B"/>
    <circle cx="95" cy="30" r="7" fill="#C0392B"/><circle cx="40" cy="88" r="7" fill="#C0392B"/>
    <circle cx="-55" cy="78" r="7" fill="#3A6A5E"/><circle cx="-95" cy="0" r="7" fill="#C0392B"/>
    <circle cx="-70" cy="-70" r="5" fill="#777"/><circle cx="70" cy="-78" r="5" fill="#777"/>
    <circle cx="108" cy="-8" r="5" fill="#3A6A5E"/><circle cx="-40" cy="105" r="5" fill="#777"/>
  </g>

  <!-- 핵심 수치 스트립 -->
  <g font-family="'Courier New',monospace">
    <text x="48" y="360" font-size="14" fill="#C8E0DC">하원 예측(중앙)</text>
    <text x="48" y="392" font-size="30" font-weight="bold" fill="#3C6E9E">민주 226</text>
    <text x="48" y="416" font-size="11" fill="#8fae9f">D+11 · Cook·Sabato 220~230 정합</text>

    <text x="48" y="470" font-size="14" fill="#C8E0DC">상원 판정</text>
    <text x="48" y="500" font-size="20" font-weight="bold" fill="#C0392B">공화 사수(약)</text>
    <text x="48" y="524" font-size="11" fill="#8fae9f">토스업 7곳 · 민주도 살아있는 꼬리</text>

    <text x="300" y="360" font-size="14" fill="#C8E0DC">중앙 시나리오</text>
    <text x="300" y="392" font-size="26" font-weight="bold" fill="#EFC97A">② 분점정부</text>
    <text x="300" y="416" font-size="11" fill="#8fae9f">민주 하원 · 공화 상원 · 트럼프 유지</text>

    <text x="300" y="470" font-size="14" fill="#C8E0DC">승인·제너릭</text>
    <text x="300" y="500" font-size="20" font-weight="bold" fill="#EFC97A">~39% · D+7~8</text>
    <text x="300" y="524" font-size="11" fill="#8fae9f">50% 미만 실패군 · §12 반증조건 5항</text>
  </g>

  <text x="48" y="574" font-family="'Courier New',monospace" font-size="11" fill="#5E9186">저자 淸海(김기섭) · 관찰자 확률 진단 v4.3 · D−36 스냅샷 · 편향 병기</text>
</svg>
